<svg width="149" height="50" viewBox="0 0 149 50" fill="none" xmlns="http://www.w3.org/2000/svg">
<path d="M136.687 0.0460598H11.8333C11.3782 0.0460598 10.9286 0.0460598 10.4747 0.0485419C10.0947 0.0510241 9.71781 0.0582348 9.3342 0.0643037C8.50083 0.0741105 7.66942 0.147427 6.84719 0.283616C6.02612 0.42277 5.23077 0.685114 4.48804 1.06178C3.74621 1.44162 3.06839 1.9352 2.47915 2.52459C1.88682 3.11233 1.39307 3.79167 1.01688 4.5365C0.639655 5.27985 0.378085 6.07641 0.241205 6.89869C0.103024 7.71992 0.0286671 8.55062 0.0188024 9.38334C0.00728517 9.76385 0.0060689 10.1456 0 10.5262V39.213C0.0060689 39.5983 0.00728517 39.9716 0.0188024 40.3571C0.0286701 41.1898 0.103027 42.0205 0.241205 42.8416C0.377707 43.6644 0.639293 44.4614 1.01688 45.205C1.3929 45.9475 1.88672 46.6241 2.47915 47.2085C3.06616 47.8005 3.74442 48.2944 4.48804 48.6714C5.23076 49.0491 6.02603 49.313 6.84719 49.4543C7.66956 49.5894 8.50088 49.6627 9.3342 49.6737C9.71781 49.6821 10.0947 49.687 10.4747 49.687C10.9286 49.6895 11.3783 49.6895 11.8333 49.6895H136.687C137.133 49.6895 137.586 49.6895 138.032 49.687C138.41 49.687 138.798 49.6821 139.176 49.6737C140.008 49.6633 140.838 49.5899 141.658 49.4543C142.482 49.312 143.28 49.0481 144.026 48.6714C144.769 48.2942 145.447 47.8003 146.034 47.2085C146.624 46.6218 147.119 45.9457 147.5 45.205C147.875 44.4609 148.134 43.6639 148.268 42.8416C148.407 42.0203 148.484 41.1899 148.499 40.3571C148.504 39.9716 148.504 39.5983 148.504 39.213C148.513 38.7621 148.513 38.3137 148.513 37.8555V11.8812C148.513 11.4267 148.513 10.9758 148.504 10.5262C148.504 10.1456 148.504 9.76385 148.499 9.38329C148.484 8.5505 148.407 7.71998 148.268 6.89864C148.134 6.07684 147.874 5.28034 147.5 4.53645C146.734 3.04352 145.519 1.82829 144.026 1.06166C143.28 0.685923 142.482 0.423648 141.658 0.283504C140.838 0.146715 140.008 0.0733733 139.176 0.06413C138.798 0.0580735 138.41 0.0508007 138.032 0.0483806C137.586 0.0458984 137.133 0.0458984 136.687 0.0458984V0.0460598Z" fill="#A6A6A6"/>
<path d="M10.4808 48.6035C10.1026 48.6035 9.73363 48.5987 9.35847 48.5902C8.58128 48.5801 7.8059 48.5125 7.0387 48.3878C6.32333 48.2646 5.63033 48.0354 4.98255 47.7078C4.34071 47.383 3.75531 46.9569 3.24875 46.4462C2.73487 45.9414 2.30704 45.3559 1.98222 44.713C1.65381 44.0659 1.42654 43.3722 1.30831 42.6563C1.18063 41.8869 1.11155 41.109 1.10167 40.3292C1.0938 40.0675 1.0835 39.196 1.0835 39.196V10.5262C1.0835 10.5262 1.09447 9.66813 1.10173 9.41603C1.11119 8.63747 1.17987 7.86077 1.30716 7.09263C1.42561 6.37469 1.65306 5.67906 1.98164 5.02982C2.30528 4.38733 2.73073 3.80143 3.24152 3.29485C3.75173 2.78345 4.33901 2.35525 4.98194 2.02588C5.62823 1.69933 6.31992 1.47176 7.03385 1.3508C7.80357 1.22491 8.58164 1.15685 9.36152 1.14719L10.4814 1.13203H138.026L139.159 1.1478C139.932 1.15698 140.703 1.22443 141.466 1.34958C142.187 1.47206 142.886 1.70122 143.539 2.02951C144.827 2.6933 145.875 3.74348 146.536 5.03285C146.86 5.6776 147.084 6.36756 147.201 7.0793C147.33 7.85374 147.402 8.63655 147.416 9.42149C147.42 9.77296 147.42 10.1505 147.42 10.5262C147.43 10.9916 147.43 11.4346 147.43 11.8812V37.8555C147.43 38.3064 147.43 38.7463 147.42 39.1899C147.42 39.5935 147.42 39.9632 147.415 40.3437C147.401 41.1147 147.33 41.8835 147.203 42.6441C147.087 43.3652 146.861 44.0643 146.533 44.7167C146.206 45.3527 145.78 45.933 145.272 46.4365C144.765 46.95 144.179 47.3785 143.536 47.7055C142.884 48.0356 142.186 48.2656 141.466 48.3878C140.698 48.5131 139.923 48.5808 139.146 48.5902C138.782 48.5987 138.402 48.6035 138.032 48.6035L136.687 48.606L10.4808 48.6035Z" fill="black"/>
<path d="M30.7403 25.241C30.7536 24.2051 31.0288 23.1894 31.5401 22.2884C32.0515 21.3875 32.7824 20.6305 33.665 20.0879C33.1043 19.2872 32.3647 18.6283 31.5048 18.1634C30.645 17.6986 29.6886 17.4406 28.7116 17.41C26.6275 17.1913 24.6071 18.6571 23.5451 18.6571C22.4625 18.6571 20.8274 17.4318 19.0666 17.468C17.9277 17.5048 16.8178 17.836 15.8449 18.4293C14.872 19.0226 14.0695 19.8578 13.5154 20.8535C11.1151 25.0092 12.9055 31.1166 15.2047 34.4758C16.3551 36.1206 17.6995 37.958 19.4587 37.8928C21.1802 37.8214 21.8231 36.7951 23.901 36.7951C25.9597 36.7951 26.5629 37.8928 28.3578 37.8514C30.205 37.8214 31.3688 36.1992 32.4788 34.5388C33.3053 33.3667 33.9414 32.0714 34.3633 30.7007C33.2901 30.2468 32.3743 29.487 31.73 28.5161C31.0857 27.5453 30.7415 26.4062 30.7403 25.241V25.241Z" fill="white"/>
<path d="M27.3501 15.2009C28.3573 13.9919 28.8535 12.4378 28.7333 10.8688C27.1946 11.0304 25.7732 11.7658 24.7524 12.9285C24.2534 13.4965 23.8711 14.1573 23.6275 14.8731C23.384 15.5889 23.2839 16.3457 23.333 17.1003C24.1027 17.1082 24.8641 16.9414 25.5599 16.6124C26.2557 16.2834 26.8678 15.8008 27.3501 15.2009Z" fill="white"/>
<path d="M52.5007 33.7288H46.6262L45.2154 37.8944H42.7272L48.2915 22.4826H50.8766L56.4409 37.8944H53.9103L52.5007 33.7288ZM47.2346 31.8066H51.8911L49.5956 25.046H49.5314L47.2346 31.8066Z" fill="white"/>
<path d="M68.4579 32.2769C68.4579 35.7687 66.589 38.0121 63.7687 38.0121C63.0542 38.0494 62.3437 37.8848 61.7185 37.5372C61.0932 37.1895 60.5785 36.6728 60.2333 36.0462H60.1799V41.6117H57.8735V26.6581H60.106V28.527H60.1484C60.5095 27.9034 61.0329 27.3893 61.6629 27.0395C62.293 26.6897 63.006 26.5173 63.7262 26.5405C66.578 26.5405 68.4579 28.7948 68.4579 32.2769ZM66.0872 32.2769C66.0872 30.002 64.9116 28.5064 63.1178 28.5064C61.3556 28.5064 60.1702 30.0335 60.1702 32.2769C60.1702 34.5409 61.3556 36.0571 63.1178 36.0571C64.9116 36.0571 66.0872 34.5724 66.0872 32.2769Z" fill="white"/>
<path d="M80.8251 32.2769C80.8251 35.7686 78.9562 38.012 76.1359 38.012C75.4214 38.0494 74.7109 37.8848 74.0856 37.5372C73.4604 37.1895 72.9457 36.6728 72.6005 36.0462H72.5471V41.6117H70.2407V26.6581H72.4732V28.5269H72.5156C72.8767 27.9033 73.4001 27.3893 74.0301 27.0395C74.6601 26.6897 75.3732 26.5173 76.0934 26.5405C78.9453 26.5405 80.8251 28.7948 80.8251 32.2769ZM78.4544 32.2769C78.4544 30.002 77.2788 28.5063 75.485 28.5063C73.7228 28.5063 72.5374 30.0335 72.5374 32.2769C72.5374 34.5409 73.7228 36.0571 75.485 36.0571C77.2788 36.0571 78.4544 34.5724 78.4544 32.2769H78.4544Z" fill="white"/>
<path d="M88.9988 33.6004C89.1697 35.1287 90.6544 36.1322 92.6832 36.1322C94.6273 36.1322 96.0259 35.1286 96.0259 33.7506C96.0259 32.5544 95.1824 31.8381 93.185 31.3472L91.1876 30.866C88.3576 30.1825 87.0438 28.859 87.0438 26.7113C87.0438 24.0522 89.3612 22.2257 92.6517 22.2257C95.9083 22.2257 98.1409 24.0522 98.216 26.7113H95.8877C95.7484 25.1733 94.477 24.2449 92.619 24.2449C90.761 24.2449 89.4896 25.1842 89.4896 26.5513C89.4896 27.6409 90.3016 28.2821 92.2881 28.7729L93.9861 29.1898C97.1482 29.9376 98.462 31.2078 98.462 33.4621C98.462 36.3454 96.1653 38.1513 92.5123 38.1513C89.0945 38.1513 86.7868 36.3878 86.6378 33.6002L88.9988 33.6004Z" fill="white"/>
<path d="M103.44 23.9988V26.658H105.576V28.4844H103.44V34.679C103.44 35.6413 103.868 36.0897 104.807 36.0897C105.061 36.0853 105.314 36.0675 105.566 36.0364V37.8519C105.143 37.9308 104.714 37.9666 104.285 37.9586C102.01 37.9586 101.122 37.1041 101.122 34.925V28.4844H99.4886V26.658H101.122V23.9988H103.44Z" fill="white"/>
<path d="M106.814 32.2768C106.814 28.7414 108.896 26.5198 112.143 26.5198C115.401 26.5198 117.473 28.7413 117.473 32.2768C117.473 35.8219 115.412 38.0338 112.143 38.0338C108.876 38.0338 106.814 35.8219 106.814 32.2768ZM115.123 32.2768C115.123 29.8516 114.012 28.4202 112.143 28.4202C110.274 28.4202 109.164 29.8625 109.164 32.2768C109.164 34.7117 110.274 36.1322 112.143 36.1322C114.012 36.1322 115.123 34.7117 115.123 32.2768H115.123Z" fill="white"/>
<path d="M119.375 26.658H121.575V28.5705H121.628C121.777 27.9732 122.127 27.4453 122.619 27.0756C123.111 26.7059 123.716 26.5169 124.331 26.5404C124.597 26.5394 124.862 26.5683 125.121 26.6264V28.7838C124.786 28.6813 124.436 28.6342 124.085 28.6444C123.75 28.6308 123.416 28.6899 123.106 28.8176C122.796 28.9453 122.517 29.1386 122.289 29.3842C122.06 29.6298 121.888 29.9219 121.783 30.2404C121.678 30.559 121.644 30.8964 121.681 31.2296V37.8944H119.375L119.375 26.658Z" fill="white"/>
<path d="M135.755 34.5941C135.445 36.6339 133.458 38.0338 130.917 38.0338C127.648 38.0338 125.619 35.8437 125.619 32.3301C125.619 28.8056 127.659 26.5198 130.82 26.5198C133.929 26.5198 135.884 28.6553 135.884 32.0623V32.8525H127.948V32.9919C127.911 33.4054 127.963 33.822 128.099 34.214C128.236 34.606 128.455 34.9644 128.741 35.2654C129.027 35.5664 129.373 35.8032 129.758 35.9599C130.142 36.1167 130.555 36.1898 130.97 36.1746C131.515 36.2256 132.062 36.0994 132.53 35.8146C132.997 35.5299 133.36 35.1018 133.565 34.5941L135.755 34.5941ZM127.958 31.2405H133.576C133.597 30.8687 133.54 30.4966 133.41 30.1476C133.281 29.7986 133.08 29.4802 132.821 29.2124C132.562 28.9447 132.251 28.7333 131.907 28.5915C131.562 28.4497 131.192 28.3807 130.82 28.3887C130.444 28.3865 130.072 28.4586 129.724 28.601C129.377 28.7434 129.061 28.9533 128.795 29.2184C128.529 29.4835 128.318 29.7987 128.174 30.1458C128.031 30.4929 127.957 30.8649 127.958 31.2405V31.2405Z" fill="white"/>
<path d="M46.9455 10.8821C47.429 10.8474 47.9143 10.9204 48.3662 11.0959C48.8181 11.2715 49.2254 11.5451 49.5587 11.8971C49.892 12.2491 50.1431 12.6707 50.2938 13.1315C50.4444 13.5923 50.491 14.0807 50.43 14.5617C50.43 16.9275 49.1513 18.2874 46.9455 18.2874H44.2706V10.8821H46.9455ZM45.4208 17.2401H46.817C47.1626 17.2608 47.5083 17.2041 47.8292 17.0743C48.1501 16.9445 48.438 16.7447 48.6719 16.4896C48.9058 16.2345 49.0799 15.9304 49.1815 15.5995C49.2831 15.2686 49.3097 14.9192 49.2592 14.5768C49.306 14.2357 49.2768 13.8885 49.1736 13.56C49.0705 13.2315 48.8959 12.9299 48.6625 12.6768C48.4291 12.4237 48.1426 12.2254 47.8236 12.096C47.5045 11.9667 47.1608 11.9095 46.817 11.9286H45.4208V17.2401Z" fill="white"/>
<path d="M51.7293 15.4907C51.6941 15.1234 51.7361 14.7529 51.8526 14.4028C51.9691 14.0528 52.1574 13.7309 52.4056 13.4579C52.6537 13.1849 52.9562 12.9667 53.2936 12.8174C53.631 12.6682 53.9958 12.5911 54.3648 12.5911C54.7337 12.5911 55.0986 12.6682 55.4359 12.8174C55.7733 12.9667 56.0758 13.1849 56.3239 13.4579C56.5721 13.7309 56.7604 14.0528 56.8769 14.4028C56.9934 14.7529 57.0354 15.1234 57.0002 15.4907C57.036 15.8583 56.9945 16.2294 56.8784 16.58C56.7622 16.9307 56.574 17.2531 56.3258 17.5267C56.0776 17.8002 55.7749 18.0188 55.4371 18.1684C55.0994 18.318 54.7341 18.3953 54.3648 18.3953C53.9954 18.3953 53.6301 18.318 53.2924 18.1684C52.9546 18.0188 52.6519 17.8002 52.4037 17.5267C52.1555 17.2531 51.9673 16.9307 51.8511 16.58C51.735 16.2294 51.6935 15.8583 51.7293 15.4907V15.4907ZM55.8658 15.4907C55.8658 14.2793 55.3216 13.5709 54.3666 13.5709C53.4079 13.5709 52.8686 14.2793 52.8686 15.4907C52.8686 16.7118 53.4079 17.4148 54.3666 17.4148C55.3216 17.4147 55.8658 16.7069 55.8658 15.4907H55.8658Z" fill="white"/>
<path d="M64.0068 18.2873H62.8627L61.7076 14.1713H61.6204L60.4702 18.2873H59.337L57.7965 12.6988H58.9152L59.9163 16.9631H59.9987L61.1477 12.6988H62.2058L63.3547 16.9631H63.442L64.4383 12.6988H65.5412L64.0068 18.2873Z" fill="white"/>
<path d="M66.8368 12.6988H67.8985V13.5866H67.9809C68.1207 13.2678 68.3565 13.0005 68.6555 12.822C68.9544 12.6435 69.3016 12.5627 69.6486 12.591C69.9205 12.5705 70.1936 12.6115 70.4475 12.7109C70.7014 12.8103 70.9297 12.9656 71.1155 13.1652C71.3013 13.3648 71.4398 13.6037 71.5207 13.8641C71.6016 14.1245 71.6229 14.3998 71.583 14.6695V18.2873H70.4801V14.9465C70.4801 14.0484 70.0898 13.6018 69.2741 13.6018C69.0895 13.5932 68.9052 13.6246 68.7339 13.6939C68.5625 13.7632 68.4082 13.8687 68.2814 14.0032C68.1547 14.1377 68.0585 14.298 67.9996 14.4732C67.9406 14.6484 67.9201 14.8342 67.9397 15.018V18.2873H66.8368L66.8368 12.6988Z" fill="white"/>
<path d="M73.3404 10.5172H74.4433V18.2873H73.3404V10.5172Z" fill="white"/>
<path d="M75.9764 15.4907C75.9413 15.1234 75.9834 14.7528 76.0998 14.4027C76.2163 14.0526 76.4047 13.7308 76.6529 13.4577C76.9011 13.1847 77.2035 12.9666 77.541 12.8173C77.8784 12.668 78.2433 12.5909 78.6122 12.5909C78.9812 12.5909 79.3461 12.668 79.6835 12.8173C80.0209 12.9666 80.3234 13.1847 80.5716 13.4577C80.8197 13.7308 81.0081 14.0526 81.1246 14.4027C81.2411 14.7528 81.2831 15.1234 81.248 15.4907C81.2838 15.8583 81.2422 16.2294 81.126 16.58C81.0098 16.9306 80.8216 17.2531 80.5733 17.5266C80.3251 17.8002 80.0224 18.0188 79.6846 18.1684C79.3469 18.3179 78.9816 18.3952 78.6122 18.3952C78.2428 18.3952 77.8775 18.3179 77.5398 18.1684C77.202 18.0188 76.8993 17.8002 76.6511 17.5266C76.4029 17.2531 76.2146 16.9306 76.0984 16.58C75.9822 16.2294 75.9407 15.8583 75.9764 15.4907V15.4907ZM80.113 15.4907C80.113 14.2793 79.5688 13.5709 78.6137 13.5709C77.655 13.5709 77.1157 14.2793 77.1157 15.4907C77.1157 16.7118 77.6551 17.4147 78.6137 17.4147C79.5688 17.4147 80.113 16.7069 80.113 15.4907H80.113Z" fill="white"/>
<path d="M82.4091 16.7068C82.4091 15.7009 83.1581 15.121 84.4877 15.0385L86.0015 14.9513V14.4689C86.0015 13.8786 85.6112 13.5454 84.8574 13.5454C84.2417 13.5454 83.815 13.7714 83.6926 14.1665H82.6249C82.7376 13.2066 83.6405 12.5909 84.9083 12.5909C86.3093 12.5909 87.0995 13.2884 87.0995 14.4689V18.2873H86.0378V17.5019H85.9506C85.7735 17.7836 85.5247 18.0133 85.2298 18.1675C84.9349 18.3216 84.6044 18.3947 84.272 18.3794C84.0374 18.4038 83.8002 18.3787 83.5759 18.3059C83.3516 18.233 83.145 18.114 82.9695 17.9564C82.7939 17.7988 82.6534 17.6062 82.5569 17.391C82.4604 17.1758 82.41 16.9427 82.4091 16.7068V16.7068ZM86.0015 16.2293V15.7621L84.6368 15.8494C83.8671 15.9009 83.5181 16.1627 83.5181 16.6553C83.5181 17.1583 83.9544 17.451 84.5544 17.451C84.7302 17.4688 84.9078 17.451 85.0766 17.3988C85.2453 17.3466 85.4019 17.2609 85.5369 17.1469C85.6719 17.0329 85.7826 16.893 85.8624 16.7353C85.9423 16.5777 85.9895 16.4056 86.0015 16.2293V16.2293Z" fill="white"/>
<path d="M88.5491 15.4906C88.5491 13.7248 89.4569 12.6061 90.8689 12.6061C91.2182 12.59 91.5648 12.6736 91.8683 12.8473C92.1717 13.0209 92.4195 13.2773 92.5827 13.5865H92.6651V10.5172H93.768V18.2873H92.7111V17.4043H92.6239C92.4481 17.7115 92.1917 17.9647 91.8824 18.1366C91.573 18.3085 91.2225 18.3924 90.8689 18.3794C89.4472 18.3795 88.5491 17.2608 88.5491 15.4906ZM89.6884 15.4906C89.6884 16.676 90.2472 17.3892 91.1816 17.3892C92.1112 17.3892 92.6857 16.6657 92.6857 15.4955C92.6857 14.3307 92.1052 13.5969 91.1816 13.5969C90.2532 13.5969 89.6884 14.315 89.6884 15.4906H89.6884Z" fill="white"/>
<path d="M98.3311 15.4907C98.296 15.1234 98.338 14.7529 98.4545 14.4028C98.5709 14.0528 98.7593 13.7309 99.0074 13.4579C99.2556 13.1849 99.558 12.9667 99.8954 12.8174C100.233 12.6682 100.598 12.5911 100.967 12.5911C101.336 12.5911 101.7 12.6682 102.038 12.8174C102.375 12.9667 102.678 13.1849 102.926 13.4579C103.174 13.7309 103.362 14.0528 103.479 14.4028C103.595 14.7529 103.637 15.1234 103.602 15.4907C103.638 15.8583 103.596 16.2294 103.48 16.58C103.364 16.9307 103.176 17.2531 102.928 17.5267C102.679 17.8002 102.377 18.0188 102.039 18.1684C101.701 18.318 101.336 18.3953 100.967 18.3953C100.597 18.3953 100.232 18.318 99.8942 18.1684C99.5565 18.0188 99.2538 17.8002 99.0056 17.5267C98.7574 17.2531 98.5692 16.9307 98.453 16.58C98.3368 16.2294 98.2953 15.8583 98.3311 15.4907V15.4907ZM102.468 15.4907C102.468 14.2793 101.923 13.5709 100.968 13.5709C100.01 13.5709 99.4704 14.2793 99.4704 15.4907C99.4704 16.7118 100.01 17.4148 100.968 17.4148C101.923 17.4147 102.468 16.7069 102.468 15.4907Z" fill="white"/>
<path d="M105.082 12.6988H106.144V13.5866H106.226C106.366 13.2678 106.602 13.0005 106.901 12.822C107.2 12.6435 107.547 12.5627 107.894 12.591C108.166 12.5705 108.439 12.6115 108.693 12.7109C108.947 12.8103 109.175 12.9656 109.361 13.1652C109.546 13.3648 109.685 13.6037 109.766 13.8641C109.847 14.1245 109.868 14.3998 109.828 14.6695V18.2873H108.725V14.9465C108.725 14.0484 108.335 13.6018 107.519 13.6018C107.335 13.5932 107.15 13.6246 106.979 13.6939C106.808 13.7632 106.653 13.8687 106.527 14.0032C106.4 14.1377 106.304 14.298 106.245 14.4732C106.186 14.6484 106.165 14.8342 106.185 15.018V18.2873H105.082V12.6988Z" fill="white"/>
<path d="M116.06 11.3074V12.7242H117.271V13.6532H116.06V16.5269C116.06 17.1123 116.301 17.3686 116.85 17.3686C116.991 17.3682 117.131 17.3597 117.271 17.3431V18.2618C117.073 18.2973 116.872 18.3161 116.671 18.3182C115.445 18.3182 114.956 17.8867 114.956 16.8093V13.6532H114.069V12.7242H114.956V11.3074H116.06Z" fill="white"/>
<path d="M118.778 10.5172H119.871V13.5969H119.958C120.105 13.275 120.347 13.0062 120.652 12.8271C120.957 12.6479 121.31 12.5672 121.662 12.5958C121.933 12.581 122.203 12.6262 122.454 12.728C122.705 12.8298 122.931 12.9858 123.114 13.1848C123.298 13.3838 123.436 13.6209 123.517 13.8792C123.599 14.1375 123.623 14.4107 123.587 14.6792V18.2873H122.483V14.9513C122.483 14.0586 122.067 13.6066 121.288 13.6066C121.098 13.591 120.907 13.6171 120.729 13.6829C120.551 13.7488 120.389 13.8528 120.255 13.9877C120.121 14.1227 120.018 14.2853 119.953 14.4642C119.888 14.6431 119.864 14.8339 119.88 15.0234V18.2873H118.778L118.778 10.5172Z" fill="white"/>
<path d="M130.018 16.7783C129.868 17.2891 129.543 17.7309 129.1 18.0264C128.658 18.322 128.125 18.4525 127.596 18.3951C127.228 18.4048 126.862 18.3343 126.524 18.1884C126.186 18.0426 125.883 17.8249 125.638 17.5504C125.392 17.276 125.209 16.9513 125.101 16.5991C124.994 16.2468 124.964 15.8754 125.014 15.5106C124.965 15.1446 124.996 14.7723 125.103 14.419C125.21 14.0657 125.392 13.7396 125.637 13.4628C125.881 13.1859 126.182 12.9648 126.519 12.8144C126.856 12.6639 127.222 12.5877 127.591 12.5909C129.146 12.5909 130.084 13.6532 130.084 15.4081V15.793H126.138V15.8548C126.121 16.0599 126.147 16.2663 126.214 16.4608C126.281 16.6554 126.388 16.8337 126.528 16.9845C126.668 17.1352 126.838 17.255 127.027 17.3361C127.217 17.4173 127.421 17.4581 127.626 17.4558C127.89 17.4874 128.157 17.4399 128.394 17.3193C128.631 17.1987 128.826 17.0103 128.956 16.7783L130.018 16.7783ZM126.138 14.9773H128.961C128.975 14.7897 128.949 14.6013 128.886 14.4242C128.823 14.2471 128.723 14.0851 128.594 13.9488C128.464 13.8124 128.307 13.7047 128.134 13.6325C127.96 13.5603 127.773 13.5252 127.585 13.5295C127.394 13.5272 127.205 13.563 127.028 13.6349C126.852 13.7068 126.691 13.8134 126.556 13.9483C126.421 14.0832 126.315 14.2438 126.243 14.4205C126.171 14.5972 126.136 14.7865 126.138 14.9773H126.138Z" fill="white"/>
</svg>
