<svg width="80" height="80" viewBox="0 0 80 80" fill="none" xmlns="http://www.w3.org/2000/svg">
<path fill-rule="evenodd" clip-rule="evenodd" d="M77 22.5C77 33.2696 68.2696 42 57.5 42H42.9727C42.9166 43.0252 42.7746 44.0276 42.554 45L57.5 45C69.9264 45 80 34.9264 80 22.5C80 10.0736 69.9264 0 57.5 0C45.0736 0 35 10.0736 35 22.5V26.0311C36.09 26.7607 37.0959 27.6063 38 28.5501V22.5C38 11.7304 46.7304 3 57.5 3C68.2696 3 77 11.7304 77 22.5Z" fill="url(#paint0_linear_1486_12207)"/>
<path d="M43.6001 21H69.5001" stroke="url(#paint1_linear_1486_12207)" stroke-width="3"/>
<path d="M43.6001 30.7998L53.7501 30.7998" stroke="url(#paint2_linear_1486_12207)" stroke-width="3"/>
<path d="M1.5 76C1.5 68.5442 7.54416 62.5 15 62.5H34C41.4558 62.5 47.5 68.5442 47.5 76V78.5H1.5V76Z" stroke="url(#paint3_linear_1486_12207)" stroke-width="3"/>
<circle cx="25" cy="41" r="13.5" stroke="url(#paint4_linear_1486_12207)" stroke-width="3"/>
<defs>
<linearGradient id="paint0_linear_1486_12207" x1="57.5" y1="0" x2="57.5" y2="45" gradientUnits="userSpaceOnUse">
<stop stop-color="#B10062"/>
<stop offset="1" stop-color="#F51627"/>
</linearGradient>
<linearGradient id="paint1_linear_1486_12207" x1="56.5501" y1="21" x2="56.5501" y2="22" gradientUnits="userSpaceOnUse">
<stop stop-color="#B10062"/>
<stop offset="1" stop-color="#F51627"/>
</linearGradient>
<linearGradient id="paint2_linear_1486_12207" x1="48.6751" y1="30.7998" x2="48.6751" y2="31.7998" gradientUnits="userSpaceOnUse">
<stop stop-color="#B10062"/>
<stop offset="1" stop-color="#F51627"/>
</linearGradient>
<linearGradient id="paint3_linear_1486_12207" x1="24.5" y1="61" x2="24.5" y2="80" gradientUnits="userSpaceOnUse">
<stop stop-color="#B10062"/>
<stop offset="1" stop-color="#F51627"/>
</linearGradient>
<linearGradient id="paint4_linear_1486_12207" x1="25" y1="26" x2="25" y2="56" gradientUnits="userSpaceOnUse">
<stop stop-color="#B10062"/>
<stop offset="1" stop-color="#F51627"/>
</linearGradient>
</defs>
</svg>
