<svg width="80" height="80" viewBox="0 0 80 80" fill="none" xmlns="http://www.w3.org/2000/svg">
<g clip-path="url(#clip0_1486_12197)">
<path d="M37.0333 2.37197C38.731 0.883235 41.2692 0.883235 42.967 2.37197L50.3101 8.81098C51.5513 9.8993 53.1168 10.5478 54.7639 10.6558L64.5094 11.2951C66.7626 11.4429 68.5574 13.2377 68.7052 15.4909L69.3445 25.2363C69.4525 26.8835 70.101 28.449 71.1893 29.6902L77.6283 37.0333C79.117 38.731 79.117 41.2692 77.6283 42.967L71.1893 50.3101C70.101 51.5513 69.4525 53.1168 69.3445 54.7639L68.7052 64.5094C68.5574 66.7626 66.7626 68.5574 64.5094 68.7052L54.7639 69.3445C53.1168 69.4525 51.5513 70.101 50.3101 71.1893L42.967 77.6283C41.2692 79.117 38.731 79.117 37.0333 77.6283L29.6902 71.1893C28.449 70.101 26.8835 69.4525 25.2363 69.3445L15.4909 68.7052C13.2377 68.5574 11.4429 66.7626 11.2951 64.5094L10.6558 54.7639C10.5478 53.1168 9.8993 51.5513 8.81098 50.3101L2.37197 42.967C0.883235 41.2692 0.883235 38.731 2.37197 37.0333L8.81098 29.6902C9.8993 28.449 10.5478 26.8835 10.6558 25.2363L11.2951 15.4909C11.4429 13.2377 13.2377 11.4429 15.4909 11.2951L25.2363 10.6558C26.8835 10.5478 28.449 9.8993 29.6902 8.81098L37.0333 2.37197Z" stroke="url(#paint0_linear_1486_12197)" stroke-width="3"/>
<path d="M25.8787 28.4618C25.962 26.7958 26.5451 25.5129 27.6281 24.6133C28.7277 23.6969 30.1688 23.2388 31.9515 23.2388C33.1677 23.2388 34.209 23.4554 35.0753 23.8885C35.9416 24.3051 36.5914 24.8798 37.0246 25.6129C37.4744 26.3293 37.6993 27.1457 37.6993 28.062C37.6993 29.1116 37.4244 30.0029 36.8746 30.736C36.3415 31.4524 35.7001 31.9355 34.9503 32.1854V32.2854C35.9166 32.5853 36.6664 33.1184 37.1995 33.8848C37.7493 34.6512 38.0242 35.6342 38.0242 36.8337C38.0242 37.8333 37.791 38.7247 37.3245 39.5077C36.8746 40.2908 36.1999 40.9072 35.3002 41.357C34.4172 41.7902 33.3509 42.0068 32.1014 42.0068C30.2188 42.0068 28.686 41.532 27.5031 40.5823C26.3202 39.6327 25.6955 38.2332 25.6288 36.3839H29.0275C29.0609 37.2002 29.3358 37.8583 29.8522 38.3581C30.3854 38.8413 31.1101 39.0829 32.0264 39.0829C32.8761 39.0829 33.5259 38.8496 33.9757 38.3831C34.4422 37.9 34.6754 37.2835 34.6754 36.5338C34.6754 35.5342 34.3589 34.8178 33.7258 34.3846C33.0927 33.9515 32.1097 33.7349 30.7769 33.7349H30.0522V30.8609H30.7769C33.1427 30.8609 34.3256 30.0696 34.3256 28.4868C34.3256 27.7704 34.109 27.2123 33.6758 26.8124C33.2593 26.4126 32.6512 26.2127 31.8515 26.2127C31.0685 26.2127 30.4603 26.4293 30.0272 26.8624C29.6107 27.2789 29.3691 27.8121 29.3024 28.4618H25.8787ZM39.5395 32.5353C39.5395 29.6531 40.0559 27.3956 41.0889 25.7628C42.1385 24.1301 43.8712 23.3138 46.2869 23.3138C48.7027 23.3138 50.4271 24.1301 51.46 25.7628C52.5096 27.3956 53.0344 29.6531 53.0344 32.5353C53.0344 35.4342 52.5096 37.7084 51.46 39.3578C50.4271 41.0072 48.7027 41.8319 46.2869 41.8319C43.8712 41.8319 42.1385 41.0072 41.0889 39.3578C40.0559 37.7084 39.5395 35.4342 39.5395 32.5353ZM49.5857 32.5353C49.5857 31.3024 49.5024 30.2695 49.3358 29.4365C49.1859 28.5868 48.8693 27.8954 48.3862 27.3622C47.9197 26.8291 47.2199 26.5625 46.2869 26.5625C45.354 26.5625 44.6459 26.8291 44.1627 27.3622C43.6962 27.8954 43.3797 28.5868 43.2131 29.4365C43.0631 30.2695 42.9882 31.3024 42.9882 32.5353C42.9882 33.8015 43.0631 34.8678 43.2131 35.7341C43.363 36.5838 43.6796 37.2752 44.1627 37.8084C44.6459 38.3248 45.354 38.5831 46.2869 38.5831C47.2199 38.5831 47.928 38.3248 48.4111 37.8084C48.8943 37.2752 49.2108 36.5838 49.3608 35.7341C49.5107 34.8678 49.5857 33.8015 49.5857 32.5353ZM27.1939 43.9936C28.2363 43.9936 29.1471 44.2002 29.9266 44.6134C30.706 45.0265 31.307 45.6088 31.7295 46.36C32.1615 47.1019 32.3775 47.9611 32.3775 48.9377C32.3775 49.9049 32.1615 50.7642 31.7295 51.5154C31.307 52.2667 30.7013 52.8489 29.9125 53.2621C29.1331 53.6752 28.2269 53.8818 27.1939 53.8818H23.4893V43.9936H27.1939ZM27.039 51.7971C27.9498 51.7971 28.6588 51.5483 29.1659 51.0506C29.673 50.5529 29.9266 49.8486 29.9266 48.9377C29.9266 48.0268 29.673 47.3178 29.1659 46.8107C28.6588 46.3037 27.9498 46.0501 27.039 46.0501H25.898V51.7971H27.039ZM38.5409 52.1352H34.8504L34.2588 53.8818H31.7375L35.3153 43.9936H38.1043L41.6821 53.8818H39.1325L38.5409 52.1352ZM37.9211 50.2759L36.6957 46.6558L35.4843 50.2759H37.9211ZM49.9125 43.9936L46.4896 50.6139V53.8818H44.0809V50.6139L40.6581 43.9936H43.3907L45.3064 48.1348L47.208 43.9936H49.9125ZM53.1226 53.9804C52.3995 53.9804 51.7516 53.8631 51.1788 53.6283C50.6059 53.3935 50.1458 53.0461 49.7984 52.5859C49.4603 52.1258 49.2819 51.5718 49.2631 50.9238H51.8267C51.8643 51.29 51.9911 51.5718 52.207 51.769C52.423 51.9568 52.7047 52.0507 53.0522 52.0507C53.409 52.0507 53.6907 51.9709 53.8973 51.8112C54.1039 51.6422 54.2072 51.4121 54.2072 51.121C54.2072 50.8769 54.1227 50.675 53.9537 50.5153C53.794 50.3557 53.5921 50.2242 53.348 50.1209C53.1132 50.0176 52.7752 49.9002 52.3338 49.7688C51.6953 49.5716 51.1741 49.3744 50.7703 49.1772C50.3665 48.98 50.019 48.6889 49.7279 48.3038C49.4368 47.9188 49.2913 47.4164 49.2913 46.7967C49.2913 45.8764 49.6246 45.158 50.2914 44.6415C50.9581 44.1157 51.8267 43.8527 52.8972 43.8527C53.9865 43.8527 54.8646 44.1157 55.5313 44.6415C56.198 45.158 56.5549 45.8811 56.6018 46.8107H53.9959C53.9772 46.4915 53.8598 46.2426 53.6438 46.0642C53.4278 45.8764 53.1508 45.7825 52.8127 45.7825C52.5216 45.7825 52.2869 45.8623 52.1084 46.0219C51.93 46.1722 51.8408 46.3929 51.8408 46.684C51.8408 47.0033 51.9911 47.2521 52.2916 47.4305C52.592 47.6089 53.0616 47.8015 53.7001 48.008C54.3387 48.224 54.8552 48.4306 55.2496 48.6278C55.6534 48.825 56.0008 49.1114 56.2919 49.4871C56.583 49.8627 56.7286 50.3463 56.7286 50.9379C56.7286 51.5013 56.583 52.0131 56.2919 52.4733C56.0102 52.9334 55.597 53.2996 55.0524 53.5719C54.5077 53.8443 53.8645 53.9804 53.1226 53.9804Z" fill="url(#paint1_linear_1486_12197)"/>
<path d="M22.8397 58.9635H26.9292C38.373 70.4073 48.7338 63.7318 52.4836 58.9635H56.7251" stroke="url(#paint2_linear_1486_12197)" stroke-width="3" stroke-linejoin="round"/>
<path d="M22.8397 20.1869H26.9292C38.373 8.74305 48.7338 15.4186 52.4836 20.1869H56.7251" stroke="url(#paint3_linear_1486_12197)" stroke-width="3" stroke-linejoin="round"/>
</g>
<defs>
<linearGradient id="paint0_linear_1486_12197" x1="40.0001" y1="-2.22461" x2="40.0001" y2="82.2249" gradientUnits="userSpaceOnUse">
<stop stop-color="#B10062"/>
<stop offset="1" stop-color="#F51627"/>
</linearGradient>
<linearGradient id="paint1_linear_1486_12197" x1="39.3077" y1="10.8818" x2="39.3077" y2="67.5871" gradientUnits="userSpaceOnUse">
<stop stop-color="#B10062"/>
<stop offset="1" stop-color="#F51627"/>
</linearGradient>
<linearGradient id="paint2_linear_1486_12197" x1="39.7824" y1="65.2822" x2="39.7824" y2="58.9635" gradientUnits="userSpaceOnUse">
<stop stop-color="#B10062"/>
<stop offset="1" stop-color="#F51627"/>
</linearGradient>
<linearGradient id="paint3_linear_1486_12197" x1="39.7824" y1="13.8682" x2="39.7824" y2="20.1869" gradientUnits="userSpaceOnUse">
<stop stop-color="#B10062"/>
<stop offset="1" stop-color="#F51627"/>
</linearGradient>
<clipPath id="clip0_1486_12197">
<rect width="80" height="80" fill="white"/>
</clipPath>
</defs>
</svg>
