<svg width="80" height="81" viewBox="0 0 80 81" fill="none" xmlns="http://www.w3.org/2000/svg">
<g clip-path="url(#clip0_1130_182158)">
<path d="M1.23596 36.387L33.8854 4.84928C37.2969 1.55394 42.7053 1.55186 46.1194 4.84457L78.9718 36.5294" stroke="url(#paint0_linear_1130_182158)" stroke-width="3.33333"/>
<path d="M13.1293 24.9119L13.1293 58.9959H33.4406M68.4708 25.9489V37.3898" stroke="url(#paint1_linear_1130_182158)" stroke-width="3.33333"/>
<path d="M41.5601 47.2419L58.2855 42.2938L75.0109 47.2419V63.3717C75.0109 67.4131 72.8529 71.1468 69.351 73.1641L60.4901 78.2687C59.1531 79.039 57.5075 79.0409 56.1686 78.2738L47.2429 73.1597C43.7281 71.1458 41.5601 67.4049 41.5601 63.3541V47.2419Z" stroke="url(#paint2_linear_1130_182158)" stroke-width="3.33333"/>
<mask id="mask0_1130_182158" style="mask-type:alpha" maskUnits="userSpaceOnUse" x="22" y="7" width="36" height="35">
<rect x="24.2687" y="24.4626" width="22.2474" height="22.2474" transform="rotate(-45 24.2687 24.4626)" fill="black" stroke="black" stroke-width="2.01326"/>
</mask>
<g mask="url(#mask0_1130_182158)">
<path d="M40.0001 42.5901C40.9467 42.5901 41.7141 41.8227 41.7141 40.8761C41.7141 39.9295 40.9467 39.1621 40.0001 39.1621C39.0535 39.1621 38.2861 39.9295 38.2861 40.8761C38.2861 41.8227 39.0535 42.5901 40.0001 42.5901Z" fill="url(#paint3_linear_1130_182158)"/>
<path fill-rule="evenodd" clip-rule="evenodd" d="M39.953 62.2975C51.3645 62.2975 60.6153 53.0467 60.6153 41.6352C60.6153 30.2237 51.3645 20.9729 39.953 20.9729C28.5415 20.9729 19.2906 30.2237 19.2906 41.6352C19.2906 53.0467 28.5415 62.2975 39.953 62.2975ZM39.953 65.6309C53.2054 65.6309 63.9486 54.8876 63.9486 41.6352C63.9486 28.3828 53.2054 17.6395 39.953 17.6395C26.7005 17.6395 15.9573 28.3828 15.9573 41.6352C15.9573 54.8876 26.7005 65.6309 39.953 65.6309ZM39.9502 54.2994C46.9442 54.2994 52.614 48.6296 52.614 41.6356C52.614 34.6416 46.9442 28.9718 39.9502 28.9718C32.9561 28.9718 27.2864 34.6416 27.2864 41.6356C27.2864 48.6296 32.9561 54.2994 39.9502 54.2994ZM39.9502 57.6327C48.7851 57.6327 55.9473 50.4705 55.9473 41.6356C55.9473 32.8006 48.7851 25.6385 39.9502 25.6385C31.1152 25.6385 23.953 32.8006 23.953 41.6356C23.953 50.4705 31.1152 57.6327 39.9502 57.6327ZM44.6147 41.6347C44.6147 44.2112 42.526 46.2999 39.9494 46.2999C37.3729 46.2999 35.2842 44.2112 35.2842 41.6347C35.2842 39.0581 37.3729 36.9694 39.9494 36.9694C42.526 36.9694 44.6147 39.0581 44.6147 41.6347ZM47.948 41.6347C47.948 46.0521 44.3669 49.6332 39.9494 49.6332C35.532 49.6332 31.9509 46.0521 31.9509 41.6347C31.9509 37.2172 35.532 33.6361 39.9494 33.6361C44.3669 33.6361 47.948 37.2172 47.948 41.6347Z" fill="url(#paint4_linear_1130_182158)"/>
</g>
<path d="M69.3817 54.8037L62.8625 61.3228L57.553 66.6323C56.8849 67.3004 55.8017 67.3004 55.1337 66.6323L50.5444 62.0431" stroke="url(#paint5_linear_1130_182158)" stroke-width="3.33333"/>
</g>
<defs>
<linearGradient id="paint0_linear_1130_182158" x1="40.1039" y1="-1.05719" x2="40.1039" y2="36.5294" gradientUnits="userSpaceOnUse">
<stop stop-color="#B10062"/>
<stop offset="1" stop-color="#F51627"/>
</linearGradient>
<linearGradient id="paint1_linear_1130_182158" x1="40.8001" y1="24.9119" x2="40.8001" y2="58.9959" gradientUnits="userSpaceOnUse">
<stop stop-color="#B10062"/>
<stop offset="1" stop-color="#F51627"/>
</linearGradient>
<linearGradient id="paint2_linear_1130_182158" x1="58.2855" y1="42.2938" x2="58.2855" y2="79.5126" gradientUnits="userSpaceOnUse">
<stop stop-color="#B10062"/>
<stop offset="1" stop-color="#F51627"/>
</linearGradient>
<linearGradient id="paint3_linear_1130_182158" x1="40.0001" y1="39.1621" x2="40.0001" y2="42.5901" gradientUnits="userSpaceOnUse">
<stop stop-color="#B10062"/>
<stop offset="1" stop-color="#F51627"/>
</linearGradient>
<linearGradient id="paint4_linear_1130_182158" x1="39.953" y1="17.6395" x2="39.953" y2="65.6309" gradientUnits="userSpaceOnUse">
<stop stop-color="#B10062"/>
<stop offset="1" stop-color="#F51627"/>
</linearGradient>
<linearGradient id="paint5_linear_1130_182158" x1="57.0636" y1="55.5239" x2="62.8625" y2="61.3228" gradientUnits="userSpaceOnUse">
<stop stop-color="#B10062"/>
<stop offset="1" stop-color="#F51627"/>
</linearGradient>
<clipPath id="clip0_1130_182158">
<rect width="80" height="80" fill="white" transform="translate(0 0.641113)"/>
</clipPath>
</defs>
</svg>
