<svg width="80" height="80" viewBox="0 0 80 80" fill="none" xmlns="http://www.w3.org/2000/svg">
<path fill-rule="evenodd" clip-rule="evenodd" d="M41.4887 0.567499L41.0437 0.429291L40.5988 0.567499L8.05499 10.6761L6.99994 11.0038V12.1085V20H9.99994V13.2133L41.0437 3.57068L72.0875 13.2133V20H75.0875V12.1085V11.0038L74.0324 10.6761L41.4887 0.567499ZM74.9378 57H71.873C71.4088 58.8468 70.2149 60.4581 68.5229 61.4332L48.2836 73.0966C43.8024 75.679 38.285 75.679 33.8038 73.0966L13.5645 61.4332C11.8725 60.4581 10.6786 58.8468 10.2144 57H7.14958C7.65891 59.928 9.44069 62.5192 12.0666 64.0325L32.3059 75.6959C37.7142 78.8125 44.3732 78.8125 49.7815 75.6959L70.0208 64.0325C72.6467 62.5192 74.4285 59.928 74.9378 57ZM13.9539 52.8975H9.24927V33.999C9.24927 31.7435 9.30265 29.9551 9.40942 28.6338C9.10246 28.9541 8.72209 29.3078 8.26831 29.6948C7.82788 30.0819 6.33309 31.3097 3.78394 33.3784L1.42163 30.3955L10.03 23.6289H13.9539V52.8975ZM35.7444 49.5942C37.386 47.1252 38.2068 43.3481 38.2068 38.2632C38.2068 33.325 37.366 29.5747 35.6844 27.0122C34.0027 24.4497 31.527 23.1685 28.2571 23.1685C24.9072 23.1685 22.4114 24.3963 20.7698 26.8521C19.1416 29.2944 18.3275 33.0981 18.3275 38.2632C18.3275 43.188 19.1683 46.925 20.8499 49.4741C22.5316 52.0233 25.0006 53.2979 28.2571 53.2979C31.6204 53.2979 34.1162 52.0633 35.7444 49.5942ZM24.3133 46.8115C23.4992 45.1032 23.0921 42.2537 23.0921 38.2632C23.0921 34.2726 23.4992 31.4165 24.3133 29.6948C25.1408 27.9731 26.4554 27.1123 28.2571 27.1123C30.0589 27.1123 31.3735 27.9932 32.201 29.7549C33.0418 31.5033 33.4622 34.3394 33.4622 38.2632C33.4622 42.2004 33.0418 45.0365 32.201 46.7715C31.3735 48.5065 30.0589 49.374 28.2571 49.374C26.4554 49.374 25.1408 48.5199 24.3133 46.8115ZM61.3159 38.2632C61.3159 43.3481 60.4951 47.1252 58.8535 49.5942C57.2252 52.0633 54.7294 53.2979 51.3661 53.2979C48.1096 53.2979 45.6406 52.0233 43.9589 49.4741C42.2773 46.925 41.4365 43.188 41.4365 38.2632C41.4365 33.0981 42.2506 29.2944 43.8788 26.8521C45.5204 24.3963 48.0162 23.1685 51.3661 23.1685C54.636 23.1685 57.1118 24.4497 58.7934 27.0122C60.475 29.5747 61.3159 33.325 61.3159 38.2632ZM46.2011 38.2632C46.2011 42.2537 46.6082 45.1032 47.4223 46.8115C48.2498 48.5199 49.5644 49.374 51.3661 49.374C53.1679 49.374 54.4825 48.5065 55.31 46.7715C56.1508 45.0365 56.5712 42.2004 56.5712 38.2632C56.5712 34.3394 56.1508 31.5033 55.31 29.7549C54.4825 27.9932 53.1679 27.1123 51.3661 27.1123C49.5644 27.1123 48.2498 27.9731 47.4223 29.6948C46.6082 31.4165 46.2011 34.2726 46.2011 38.2632ZM78.7682 29.3012C79.2106 28.6007 79.0014 27.6743 78.3009 27.2319C77.6005 26.7896 76.6741 26.9987 76.2317 27.6992L64.2317 46.6992C63.7893 47.3996 63.9985 48.326 64.699 48.7684C65.3994 49.2108 66.3258 49.0016 66.7682 48.3012L78.7682 29.3012ZM71 30.5001C71 32.4331 69.4329 34.0001 67.5 34.0001C65.567 34.0001 64 32.4331 64 30.5001C64 28.5671 65.567 27.0001 67.5 27.0001C69.4329 27.0001 71 28.5671 71 30.5001ZM75.5 49.0001C77.4329 49.0001 79 47.4331 79 45.5001C79 43.5671 77.4329 42.0001 75.5 42.0001C73.567 42.0001 72 43.5671 72 45.5001C72 47.4331 73.567 49.0001 75.5 49.0001Z" fill="url(#paint0_linear_2995_19057)"/>
<defs>
<linearGradient id="paint0_linear_2995_19057" x1="78.4745" y1="78.4178" x2="16.1898" y2="-10.0398" gradientUnits="userSpaceOnUse">
<stop stop-color="#B10062"/>
<stop offset="1" stop-color="#F51627"/>
</linearGradient>
</defs>
</svg>
