<svg width="81" height="78" viewBox="0 0 81 78" fill="none" xmlns="http://www.w3.org/2000/svg">
<g clip-path="url(#clip0_1260_168325)">
<path fill-rule="evenodd" clip-rule="evenodd" d="M41.5899 0.14L41.1399 0L40.6999 0.14L8.1499 10.24L7.1499 10.57V19.57H10.1499V12.8L41.1499 3.16L72.1899 12.8V19.59H75.1899V10.59L74.1299 10.26L41.5899 0.14ZM75.0399 56.57H71.9699C71.739 57.4961 71.3231 58.3659 70.7474 59.1272C70.1717 59.8885 69.4481 60.5255 68.6199 61L48.3799 72.67C46.1777 73.938 43.6811 74.6053 41.1399 74.6053C38.5987 74.6053 36.1021 73.938 33.8999 72.67L13.6599 61C12.8332 60.5237 12.1106 59.8861 11.5351 59.1251C10.9597 58.3641 10.543 57.4952 10.3099 56.57H7.2499C7.50768 58.0258 8.08192 59.4072 8.93205 60.6167C9.78218 61.8263 10.8875 62.8344 12.1699 63.57L32.4099 75.26C35.0657 76.7933 38.0783 77.6005 41.1449 77.6005C44.2115 77.6005 47.2241 76.7933 49.8799 75.26L70.1199 63.6C71.4058 62.8613 72.5133 61.8484 73.3636 60.6335C74.2139 59.4185 74.7862 58.0311 75.0399 56.57Z" fill="url(#paint0_linear_1260_168325)"/>
<path d="M20.31 52.6201H0.5V49.0501L8.04 41.4601C9.60008 39.9186 11.0819 38.2999 12.48 36.6101C13.125 35.7865 13.6595 34.8822 14.07 33.9201C14.4065 33.0565 14.5762 32.1369 14.57 31.2101C14.5998 30.6358 14.5093 30.0617 14.3044 29.5244C14.0995 28.9872 13.7846 28.4986 13.38 28.0901C12.4737 27.2892 11.2874 26.8794 10.08 26.9501C8.96733 26.9506 7.86473 27.1609 6.83 27.5701C5.52007 28.1369 4.29774 28.8878 3.2 29.8001L0.66 26.7101C2.06054 25.4742 3.66414 24.4897 5.4 23.8001C6.96734 23.2174 8.62793 22.9259 10.3 22.9401C12.671 22.8202 15.003 23.5785 16.85 25.0701C17.6639 25.7792 18.3076 26.6625 18.7335 27.6545C19.1594 28.6464 19.3564 29.7215 19.31 30.8001C19.3189 32.0908 19.0778 33.371 18.6 34.5701C18.0507 35.8904 17.3167 37.126 16.42 38.2401C14.913 40.0601 13.2789 41.7711 11.53 43.3601L6.44 48.2701V48.4701H20.31V52.6201Z" fill="url(#paint1_linear_1260_168325)"/>
<path d="M43.7101 46.23H39.7701V52.62H35.1801V46.23H21.8101V42.61L35.1801 23.27H39.7701V42.33H43.7101V46.23ZM35.1801 42.33V34.98C35.1801 32.36 35.2467 30.2167 35.3801 28.55H35.2201C34.7225 29.6793 34.1339 30.7662 33.4601 31.8L26.2001 42.33H35.1801Z" fill="url(#paint2_linear_1260_168325)"/>
<path d="M59.0199 23.3501L48.1299 52.6201H43.6899L54.5999 23.3501H59.0199Z" fill="url(#paint3_linear_1260_168325)"/>
<path d="M63.42 52.6201L74.99 27.5301H59.78V23.3901H80.02V26.6701L68.51 52.6701L63.42 52.6201Z" fill="url(#paint4_linear_1260_168325)"/>
</g>
<defs>
<linearGradient id="paint0_linear_1260_168325" x1="41.1699" y1="0" x2="41.1699" y2="77.6005" gradientUnits="userSpaceOnUse">
<stop stop-color="#B10062"/>
<stop offset="1" stop-color="#F51627"/>
</linearGradient>
<linearGradient id="paint1_linear_1260_168325" x1="10.405" y1="22.9277" x2="10.405" y2="52.6201" gradientUnits="userSpaceOnUse">
<stop stop-color="#B10062"/>
<stop offset="1" stop-color="#F51627"/>
</linearGradient>
<linearGradient id="paint2_linear_1260_168325" x1="32.7601" y1="23.27" x2="32.7601" y2="52.62" gradientUnits="userSpaceOnUse">
<stop stop-color="#B10062"/>
<stop offset="1" stop-color="#F51627"/>
</linearGradient>
<linearGradient id="paint3_linear_1260_168325" x1="51.3549" y1="23.3501" x2="51.3549" y2="52.6201" gradientUnits="userSpaceOnUse">
<stop stop-color="#B10062"/>
<stop offset="1" stop-color="#F51627"/>
</linearGradient>
<linearGradient id="paint4_linear_1260_168325" x1="69.9" y1="23.3901" x2="69.9" y2="52.6701" gradientUnits="userSpaceOnUse">
<stop stop-color="#B10062"/>
<stop offset="1" stop-color="#F51627"/>
</linearGradient>
<clipPath id="clip0_1260_168325">
<rect width="79.52" height="77.6" fill="white" transform="translate(0.5)"/>
</clipPath>
</defs>
</svg>
