<svg width="80" height="80" viewBox="0 0 80 80" fill="none" xmlns="http://www.w3.org/2000/svg">
<path d="M31.6637 79.8291C27.2852 79.8291 23.1411 78.3591 19.3158 75.4381C13.6903 71.1412 10.2962 65.2331 9.23678 57.8739C8.6836 54.0105 9.09614 49.9587 10.5119 45.4923C11.4776 42.4487 12.5089 39.3863 13.5121 36.4181C13.9622 35.0989 14.4028 33.7797 14.8435 32.4605L16.653 27.0424C16.9062 26.2885 17.0187 25.5064 16.9906 24.6395C16.9624 23.7538 17.0843 22.8963 17.3187 22.1708C18.2657 19.2779 20.3752 18.232 23.413 19.1554C25.4944 19.7868 27.0696 21.3133 28.2228 23.8103C29.9292 27.5229 30.323 31.3392 29.3854 35.1554C29.226 35.8244 29.076 36.4935 28.9447 37.1908C29.1791 37.0306 29.4135 36.8798 29.6573 36.7196C36.2954 32.404 42.9334 28.0977 49.5715 23.7915C51.3154 22.6607 53.0687 21.5394 54.8126 20.4181C55.9939 19.6643 57.8316 18.7314 60.1099 19.3533C62.4164 19.9847 64.1697 21.7279 64.7791 24.0082C65.3698 26.232 64.7603 28.55 63.1383 30.199C62.9133 30.4252 62.6508 30.6419 62.3132 30.8775L48.9527 40.093C50.1059 40.7337 51.0248 41.6478 51.728 42.8256C52.778 44.6065 53.0031 46.5194 52.3843 48.4134C52.8812 48.7997 53.3875 49.2049 53.8563 49.6949C55.9377 51.8904 56.4721 55.0753 55.2064 57.676C57.6347 59.881 58.1316 62.8963 56.519 65.7797C55.8252 67.0235 54.9064 68.06 53.7906 68.8515C52.6562 69.6619 51.5217 70.4722 50.3872 71.2826C48.4277 72.696 46.3931 74.1566 44.3586 75.5606C41.5927 77.464 38.9581 78.6795 36.286 79.2826C34.739 79.6501 33.1826 79.8291 31.6637 79.8291ZM21.4347 21.6525C20.619 21.6525 20.3002 22.1425 20.0002 23.0659C19.8596 23.49 19.7939 24.0082 19.8127 24.583C19.8408 25.7891 19.6814 26.8916 19.3251 27.9564L17.5156 33.3745C17.075 34.6937 16.6249 36.0223 16.1843 37.3415C15.181 40.2909 14.1497 43.3533 13.1934 46.3686C11.9183 50.4016 11.5338 54.0388 12.0214 57.4687C12.9683 64.0647 15.9967 69.3509 21.0128 73.1766C25.4851 76.5876 30.4261 77.7184 35.6953 76.5311C38.0111 76.0129 40.327 74.9292 42.7928 73.2425C44.7992 71.8574 46.815 70.4063 48.7746 69.0023C49.909 68.1825 51.0435 67.3627 52.1874 66.5523C52.9656 65.9964 53.5844 65.2991 54.0813 64.4039C55.0657 62.6324 54.7938 61.0588 53.2656 59.7208C53.2281 59.6925 53.1812 59.6642 53.1343 59.6265C52.8249 59.4098 52.2436 59.0046 52.1217 58.2508C52.0092 57.5252 52.3561 56.9787 52.5624 56.6489C52.5905 56.6018 52.628 56.5547 52.6562 56.5076C53.4531 54.9622 53.1156 53.0117 51.8311 51.6548C51.4654 51.2779 51.0154 50.9293 50.5372 50.5523C50.2935 50.3639 50.0403 50.166 49.7965 49.9681C49.2902 49.5535 49.1402 48.828 49.4309 48.2437C50.1153 46.868 50.0778 45.5677 49.3184 44.2767C48.5496 42.9764 47.3588 42.2037 45.6712 41.9116C45.1368 41.8174 44.7055 41.431 44.5555 40.9034C44.4054 40.3851 44.5742 39.8197 44.9774 39.4617L45.0524 39.3957C45.1555 39.3015 45.2211 39.2449 45.2868 39.1978L60.7194 28.55C60.8975 28.4275 61.0381 28.3144 61.1319 28.2202C62.0601 27.2779 62.3976 26.0153 62.0601 24.7526C61.7132 23.4523 60.71 22.4629 59.3692 22.0954C58.4317 21.841 57.5128 22.0483 56.3221 22.8209C54.5876 23.9328 52.8437 25.0541 51.0998 26.1849C44.4617 30.4911 37.8236 34.7974 31.1855 39.1036C30.4261 39.5936 29.6854 40.1024 28.8979 40.6395L27.7259 41.431C27.2571 41.7514 26.6383 41.7514 26.1601 41.431C25.6913 41.1107 25.4476 40.5453 25.5601 39.9799C25.6726 39.3769 25.7851 38.7926 25.8882 38.2178C26.1226 36.9269 26.3476 35.7114 26.6477 34.4864C27.4258 31.3109 27.0977 28.1166 25.6632 25.007C24.8569 23.2544 23.8818 22.265 22.5879 21.8692C22.1285 21.7185 21.7441 21.6525 21.4347 21.6525Z" fill="url(#paint0_linear_109_4813)"/>
<path fill-rule="evenodd" clip-rule="evenodd" d="M40.7947 0.22627C41.5732 0.509461 41.9748 1.37015 41.6916 2.14867L35.0829 20.3167C34.7997 21.0952 33.939 21.4967 33.1605 21.2135C32.382 20.9303 31.9804 20.0697 32.2636 19.2911L38.8723 1.12314C39.1555 0.344623 40.0162 -0.0569209 40.7947 0.22627Z" fill="url(#paint1_linear_109_4813)"/>
<path fill-rule="evenodd" clip-rule="evenodd" d="M28.5706 2.80724C29.399 2.81429 30.0648 3.49156 30.0578 4.31996L29.981 13.3333C29.974 14.1617 29.2967 14.8275 28.4683 14.8205C27.6399 14.8134 26.9741 14.1362 26.9811 13.3078L27.0579 4.29441C27.065 3.46601 27.7422 2.80018 28.5706 2.80724Z" fill="url(#paint2_linear_109_4813)"/>
<path fill-rule="evenodd" clip-rule="evenodd" d="M44.7664 15.0559C45.4759 15.4835 45.7044 16.4054 45.2767 17.1149L40.8474 24.4636C40.4198 25.1732 39.4979 25.4017 38.7884 24.974C38.0789 24.5464 37.8504 23.6245 38.278 22.915L42.7074 15.5662C43.135 14.8567 44.0569 14.6282 44.7664 15.0559Z" fill="url(#paint3_linear_109_4813)"/>
<path fill-rule="evenodd" clip-rule="evenodd" d="M47.5587 6.61244C47.2946 5.82722 46.444 5.40473 45.6588 5.66878C44.8736 5.93283 44.4511 6.78343 44.7151 7.56865L45.3498 9.45601L43.4623 10.0907C42.6771 10.3548 42.2546 11.2054 42.5186 11.9906C42.7827 12.7758 43.6333 13.1983 44.4185 12.9343L46.306 12.2995L46.9407 14.1869C47.2048 14.9721 48.0554 15.3946 48.8406 15.1305C49.6258 14.8665 50.0483 14.0159 49.7842 13.2307L49.1496 11.3433L51.0367 10.7087C51.822 10.4447 52.2445 9.59405 51.9804 8.80883C51.7164 8.02361 50.8657 7.60112 50.0805 7.86518L48.1933 8.49979L47.5587 6.61244Z" fill="url(#paint4_linear_109_4813)"/>
<defs>
<linearGradient id="paint0_linear_109_4813" x1="37" y1="18.8291" x2="37" y2="79.8291" gradientUnits="userSpaceOnUse">
<stop stop-color="#B30161"/>
<stop offset="1" stop-color="#EE2F44"/>
</linearGradient>
<linearGradient id="paint1_linear_109_4813" x1="36.9776" y1="0.135498" x2="36.9776" y2="21.3043" gradientUnits="userSpaceOnUse">
<stop stop-color="#B30161"/>
<stop offset="1" stop-color="#EE2F44"/>
</linearGradient>
<linearGradient id="paint2_linear_109_4813" x1="26.0504" y1="3.88529" x2="30.9885" y2="13.7424" gradientUnits="userSpaceOnUse">
<stop stop-color="#B30161"/>
<stop offset="1" stop-color="#EE2F44"/>
</linearGradient>
<linearGradient id="paint3_linear_109_4813" x1="41.7774" y1="14.8403" x2="41.7774" y2="25.1895" gradientUnits="userSpaceOnUse">
<stop stop-color="#B30161"/>
<stop offset="1" stop-color="#EE2F44"/>
</linearGradient>
<linearGradient id="paint4_linear_109_4813" x1="45.6586" y1="5.66888" x2="48.8404" y2="15.1306" gradientUnits="userSpaceOnUse">
<stop stop-color="#B30161"/>
<stop offset="1" stop-color="#EE2F44"/>
</linearGradient>
</defs>
</svg>
