<svg width="80" height="82" viewBox="0 0 80 82" fill="none" xmlns="http://www.w3.org/2000/svg">
<path fill-rule="evenodd" clip-rule="evenodd" d="M39.9999 0.429727L40.0085 0.429776L62.9777 0.562039L64.4691 0.570627V2.06201V6.49104H72.9668H74.4668V7.99104V20.8924V20.9407L74.4637 20.9889C74.35 22.7522 73.661 25.3391 71.9332 27.5205C70.3483 29.5216 67.9275 31.1252 64.4691 31.4479V33.6832C64.4691 36.0039 63.2317 38.1486 61.2227 39.3103L48.8798 46.4471C47.4889 47.2513 46.6323 48.7361 46.6323 50.3427V53.0687V56.5024H52.0268C53.4075 56.5024 54.5268 57.6217 54.5268 59.0024V66.5281H59.1116C59.94 66.5281 60.6116 67.1996 60.6116 68.0281C60.6116 68.3743 60.6044 68.7202 60.596 69.1289C60.5945 69.1995 60.593 69.272 60.5915 69.3467C60.5903 69.407 60.5891 69.4688 60.5879 69.5322C60.5763 70.1369 60.5647 70.9248 60.5647 72.0888C60.5647 72.5857 60.8939 73.1551 61.612 73.714C61.9476 73.9752 62.3121 74.1868 62.6337 74.3362C62.7932 74.4103 62.9321 74.4643 63.0408 74.5001C63.1324 74.5303 63.1821 74.5407 63.1931 74.543C63.1962 74.5437 63.1963 74.5437 63.1933 74.5433C63.9424 74.6386 64.5039 75.2761 64.5039 76.0313V80.0979C64.5039 80.9263 63.8323 81.5979 63.0039 81.5979L49.0772 81.5979L45.501 81.5979L17.0061 81.5979C16.1777 81.5979 15.5061 80.9263 15.5061 80.0979V76.0313C15.5061 75.2766 16.0668 74.6394 16.8154 74.5435L16.8127 74.5438C16.8126 74.5435 16.8612 74.5349 16.9633 74.5011C17.0705 74.4655 17.2078 74.4117 17.3657 74.3379C17.6841 74.189 18.0453 73.9778 18.378 73.7171C19.0887 73.1602 19.418 72.5902 19.418 72.0888C19.418 70.9247 19.4065 70.1368 19.395 69.532C19.3923 69.3901 19.3895 69.2563 19.3869 69.1286C19.3785 68.7199 19.3714 68.3742 19.3714 68.0281C19.3714 67.1997 20.043 66.5281 20.8714 66.5281H25.509V62.7497V59.0024C25.509 57.6217 26.6283 56.5024 28.009 56.5024H33.385V51.4334V50.2127C33.385 48.627 32.5504 47.1583 31.1881 46.3467L29.3751 45.2666L18.8329 39.3091C16.7924 38.1561 15.5308 35.9939 15.5308 33.6502V31.4443C12.0924 31.1135 9.68355 29.5143 8.10437 27.5205C6.37659 25.3391 5.68759 22.7522 5.57391 20.9889L5.5708 20.9407V20.8924V7.99104V6.49104H7.0708H15.5308V2.06201V0.570627L17.0221 0.562039L39.9913 0.429776L39.9999 0.429727ZM45.501 78.5979L49.0772 78.5979L61.5039 78.5979V77.1177C61.459 77.0979 61.4143 77.0776 61.3701 77.0571C60.8672 76.8235 60.3042 76.4976 59.7695 76.0815C58.7471 75.2859 57.5647 73.9424 57.5647 72.0888C57.5647 70.9361 57.5759 70.1413 57.5874 69.5281H49.6559L48.714 69.5281L31.1969 69.5281L22.3954 69.5281C22.4069 70.1413 22.418 70.9361 22.418 72.0888C22.418 73.9378 21.2462 75.2809 20.2284 76.0784C19.6969 76.495 19.137 76.8214 18.6366 77.0554C18.5934 77.0756 18.5499 77.0954 18.5061 77.1149V78.5979L45.501 78.5979ZM48.714 66.5281L49.6559 66.5281L51.5268 66.5281V59.5024H28.509V62.7497V66.5281H31.1969L48.714 66.5281ZM43.6323 53.0687V56.5024H36.385V51.4334V50.2127C36.385 47.5698 34.994 45.122 32.7235 43.7694L30.8958 42.6805L30.881 42.6718L30.866 42.6633L20.3088 36.6973C19.2101 36.0764 18.5308 34.9122 18.5308 33.6502V3.5534L39.9999 3.42978L61.4691 3.5534V33.6832C61.4691 34.9328 60.8028 36.0876 59.721 36.7131L47.3781 43.85C45.06 45.1903 43.6323 47.665 43.6323 50.3427V53.0687ZM64.4691 28.4309C66.9247 28.132 68.526 26.9904 69.5815 25.6578C70.8466 24.0605 71.3751 22.1175 71.4668 20.8415V9.49104H64.4691V28.4309ZM15.5308 9.49104V28.4263C13.0965 28.1202 11.5061 26.9836 10.4561 25.6578C9.19095 24.0605 8.66245 22.1175 8.5708 20.8415V9.49104H15.5308ZM37.7194 25.2679L32.8268 20.3753L30.7055 22.4966L35.5981 27.3892C36.7765 28.5677 38.6871 28.5677 39.8656 27.3892L52.2059 15.0489L50.0846 12.9276L37.7442 25.2679C37.742 25.2702 37.7407 25.271 37.7403 25.2713L37.7392 25.2719C37.7382 25.2723 37.7356 25.2731 37.7318 25.2731C37.7303 25.2731 37.729 25.2729 37.7279 25.2728C37.7268 25.2726 37.7259 25.2724 37.7252 25.2721C37.7249 25.272 37.7247 25.272 37.7245 25.2719L37.7233 25.2713C37.723 25.271 37.7217 25.2702 37.7194 25.2679Z" fill="url(#paint0_linear_2719_18464)"/>
<defs>
<linearGradient id="paint0_linear_2719_18464" x1="74" y1="82" x2="6" y2="-2.10906e-06" gradientUnits="userSpaceOnUse">
<stop stop-color="#B10062"/>
<stop offset="1" stop-color="#F51627"/>
</linearGradient>
</defs>
</svg>
